{
	"bufferViews":[{
		"buffer":0,
		"target":34963,
		"byteOffset":0,
		"byteLength":45180
	},
	{
		"buffer":0,
		"target":34962,
		"byteOffset":45180,
		"byteLength":155552,
		"byteStride":32
	}],
	"asset":{
		"version":"2.0",
		"generator":"Created using the official Cinema 4D glTF Exporter 1.000x284978"
	},
	"scenes":[{
		"nodes":[0]
	}],
	"nodes":[{
		"mesh":0,
		"name":"Remesh"
	}],
	"meshes":[{
		"name":"Remesh",
		"primitives":[{
			"attributes":{
				"POSITION":1,
				"NORMAL":2,
				"TEXCOORD_0":3
			},
			"indices":0
		}]
	}],
	"accessors":[{
		"bufferView":0,
		"min":[0],
		"type":"SCALAR",
		"componentType":5123,
		"count":22590,
		"byteOffset":0,
		"max":[4860]
	},
	{
		"bufferView":1,
		"min":[-66.7107162475586,
		-66.14988708496094,
		-11.852484703063965],
		"type":"VEC3",
		"componentType":5126,
		"count":4861,
		"byteOffset":0,
		"max":[191.96604919433595,
		67.209716796875,
		10.852484703063965]
	},
	{
		"bufferView":1,
		"min":[-0.9966399669647217,
		-0.9985808730125427,
		-1.0],
		"type":"VEC3",
		"componentType":5126,
		"count":4861,
		"byteOffset":12,
		"max":[0.999771237373352,
		0.9987082481384277,
		1.0]
	},
	{
		"bufferView":1,
		"min":[-8.716888544313406e-8,
		-7.589035178057202e-9],
		"type":"VEC2",
		"componentType":5126,
		"count":4861,
		"byteOffset":24,
		"max":[1.0,
		1.0]
	}],
	"buffers":[{
		"uri":"data:application/octet-stream;base64,",
		"byteLength":200732
	}]
}